<?xml version="1.0" encoding="UTF-8"?>
<svg xmlns="http://www.w3.org/2000/svg" width="1400" height="1640" viewBox="0 0 1400 1640" font-family="Segoe UI, Arial, sans-serif">
  <!-- =========================================================================
       Project 2 - Architecture Block Diagram (Broadcast / Live TV use case)
       Layers shown: AL (Middleware) , PAL (Platform/OS) , HAL (Drivers)
       Naming follows Module 5/6/7 writeups and liba4tv (Comedia) Javadoc.
       OTT path intentionally omitted (focus = Broadcast).
       ========================================================================= -->

  <defs>
    <style>
      .title       { font-size: 26px; font-weight: 700; fill: #1b3a5b; }
      .subtitle    { font-size: 14px; fill: #5a6b7b; }
      .bandlabel   { font-size: 18px; font-weight: 700; fill: #ffffff; }
      .grouplabel  { font-size: 14px; font-weight: 700; fill: #14406b; }
      .block       { font-size: 13px; fill: #14406b; }
      .blocksub    { font-size: 10.5px; fill: #5a6b7b; font-style: italic; }
      .note        { font-size: 11px; fill: #6b7785; font-style: italic; }
      .highlightlbl{ font-size: 13px; font-weight: 700; fill: #8a4b00; }
    </style>

    <!-- band background -->
    <linearGradient id="band" x1="0" y1="0" x2="0" y2="1">
      <stop offset="0" stop-color="#0e2a45"/>
      <stop offset="1" stop-color="#143a5f"/>
    </linearGradient>

    <!-- thin red arrowhead for the broadcast data-flow path -->
    <marker id="redArrow" markerWidth="9" markerHeight="9" refX="7" refY="3" orient="auto" markerUnits="userSpaceOnUse">
      <path d="M0,0 L7,3 L0,6 Z" fill="#d4231f"/>
    </marker>
  </defs>

  <style>
    .flow      { stroke: #d4231f; stroke-width: 1.6; fill: none; marker-end: url(#redArrow); }
    .flowback  { stroke: #d4231f; stroke-width: 1.2; fill: none; stroke-dasharray: 4 3; marker-end: url(#redArrow); }
    .stepnum   { fill: #d4231f; font-size: 12px; font-weight: 700; }
    .stepbadge { fill: #ffffff; stroke: #d4231f; stroke-width: 1.4; }
    .calllbl   { fill: #a01512; font-size: 10px; font-family: Consolas, monospace; }
  </style>

  <!-- ================= Title ================= -->
  <text x="40" y="44" class="title">Live TV Application — Host Software Architecture (Broadcast)</text>
  <text x="40" y="68" class="subtitle">Android flavour · layers: Middleware / AL — Platform / PAL / OS — Drivers / HAL   (OTT path omitted)</text>

  <!-- =====================================================================
       OUTER HOST SW FRAME
       ===================================================================== -->
  <rect x="40" y="88" width="1320" height="1010" rx="14" fill="#fef9f0" stroke="#f0a500" stroke-width="2.5"/>
  <text x="700" y="116" text-anchor="middle" font-size="18" font-weight="700" fill="#8a5a00">Host SW</text>

  <!-- ================================================================ -->
  <!--  APPLICATION ROW  -->
  <!-- ================================================================ -->
  <rect x="68"  y="130" width="180" height="46" rx="8" fill="#eaf2fb" stroke="#2f6db0" stroke-width="2"/>
  <text x="158" y="158" text-anchor="middle" class="block" font-weight="700">Live TV App</text>

  <rect x="262" y="130" width="120" height="46" rx="8" fill="#ffffff" stroke="#9bb6d4" stroke-width="1.5"/>
  <text x="322" y="158" text-anchor="middle" class="block" fill="#6b7785">VoD App</text>
  <rect x="396" y="130" width="120" height="46" rx="8" fill="#ffffff" stroke="#9bb6d4" stroke-width="1.5"/>
  <text x="456" y="158" text-anchor="middle" class="block" fill="#6b7785">OTT App</text>
  <rect x="530" y="130" width="120" height="46" rx="8" fill="#ffffff" stroke="#9bb6d4" stroke-width="1.5"/>
  <text x="590" y="158" text-anchor="middle" class="block" fill="#6b7785">ExoPlayer</text>
  <text x="690" y="160" class="block" fill="#9bb6d4" font-size="20">…</text>

  <!-- =====================================================================
       BAND 1 : MIDDLEWARE / AL
       ===================================================================== -->
  <rect x="64" y="192" width="1272" height="430" rx="12" fill="url(#band)"/>
  <text x="84" y="216" class="bandlabel">Middleware / AL  (Android)</text>

  <!-- Application runtime (left rail) -->
  <rect x="80" y="232" width="150" height="372" rx="8" fill="#13314f" stroke="#3d6c99" stroke-width="1.5"/>
  <text x="155" y="254" text-anchor="middle" class="grouplabel" fill="#cfe2f5">Application</text>
  <text x="155" y="270" text-anchor="middle" class="grouplabel" fill="#cfe2f5">runtime</text>
  <g>
    <rect x="92" y="284" width="126" height="34" rx="6" fill="#eaf2fb" stroke="#2f6db0"/>
    <text x="155" y="306" text-anchor="middle" class="block">ART</text>
    <rect x="92" y="324" width="126" height="34" rx="6" fill="#eaf2fb" stroke="#2f6db0"/>
    <text x="155" y="346" text-anchor="middle" class="block">Activity Manager</text>
    <rect x="92" y="364" width="126" height="34" rx="6" fill="#eaf2fb" stroke="#2f6db0"/>
    <text x="155" y="386" text-anchor="middle" class="block">Content Providers</text>
    <rect x="92" y="404" width="126" height="34" rx="6" fill="#eaf2fb" stroke="#2f6db0"/>
    <text x="155" y="426" text-anchor="middle" class="block">Package Mgr.</text>
    <rect x="92" y="444" width="126" height="34" rx="6" fill="#eaf2fb" stroke="#2f6db0"/>
    <text x="155" y="466" text-anchor="middle" class="block">Resource Mgr.</text>
    <rect x="92" y="484" width="126" height="34" rx="6" fill="#eaf2fb" stroke="#2f6db0"/>
    <text x="155" y="506" text-anchor="middle" class="block">Jetpack</text>
    <text x="155" y="538" text-anchor="middle" class="block" fill="#9bb6d4" font-size="18">…</text>
  </g>

  <!-- ===================================================================
       DTV MIDDLEWARE  (TIF + Comedia)  — the heart of the broadcast path
       =================================================================== -->
  <rect x="246" y="232" width="700" height="372" rx="8" fill="#13314f" stroke="#5fa0e0" stroke-width="2"/>
  <text x="596" y="254" text-anchor="middle" class="grouplabel" fill="#cfe2f5">DTV Middleware</text>

  <!-- TV Input Framework block -->
  <rect x="262" y="266" width="668" height="120" rx="8" fill="#0f2742" stroke="#4f86bd" stroke-width="1.5"/>
  <text x="276" y="286" font-size="12.5" font-weight="700" fill="#cfe2f5">TV Input Framework (TIF)</text>

  <rect x="276" y="296" width="640" height="34" rx="6" fill="#dff0d8" stroke="#5a9f4a"/>
  <text x="596" y="318" text-anchor="middle" class="block" fill="#2e5e22" font-weight="700">TV Input Manager</text>

  <rect x="276" y="340" width="200" height="36" rx="6" fill="#dff0d8" stroke="#5a9f4a"/>
  <text x="376" y="363" text-anchor="middle" class="block" fill="#2e5e22" font-weight="700">Broadcast TV Input (TIS)</text>
  <rect x="492" y="340" width="200" height="36" rx="6" fill="#eef4fa" stroke="#9bb6d4"/>
  <text x="592" y="363" text-anchor="middle" class="block" fill="#6b7785">OTT TV Input</text>
  <rect x="708" y="340" width="208" height="36" rx="6" fill="#dff0d8" stroke="#5a9f4a"/>
  <text x="812" y="363" text-anchor="middle" class="block" fill="#2e5e22" font-weight="700">TV Provider</text>

  <!-- Comedia DTV Middleware service (native) -->
  <rect x="262" y="396" width="668" height="196" rx="8" fill="#0f2742" stroke="#4f86bd" stroke-width="1.5"/>
  <text x="276" y="416" font-size="12.5" font-weight="700" fill="#cfe2f5">Comedia DTV Middleware  (iWedia · bound via Binder)</text>

  <!-- Comedia API -->
  <rect x="276" y="424" width="640" height="44" rx="6" fill="#fde9c8" stroke="#d79a3a"/>
  <text x="288" y="441" font-size="11" font-weight="700" fill="#8a5a00">Comedia API</text>
  <rect x="430" y="430" width="150" height="32" rx="5" fill="#ffffff" stroke="#d79a3a"/>
  <text x="505" y="451" text-anchor="middle" class="block" fill="#8a5a00">Comedia Service (Java)</text>
  <rect x="590" y="430" width="150" height="32" rx="5" fill="#ffffff" stroke="#d79a3a"/>
  <text x="665" y="451" text-anchor="middle" class="block" fill="#8a5a00">MAL (native API)</text>

  <!-- Comedia MW core: functional groups used by Live TV -->
  <rect x="276" y="474" width="640" height="58" rx="6" fill="#fde9c8" stroke="#d79a3a"/>
  <text x="288" y="490" font-size="11" font-weight="700" fill="#8a5a00">Comedia MW</text>
  <g font-size="11">
    <rect x="294" y="496" width="86" height="30" rx="5" fill="#ffffff" stroke="#d79a3a"/><text x="337" y="515" text-anchor="middle" fill="#8a5a00">Scan Control</text>
    <rect x="386" y="496" width="96" height="30" rx="5" fill="#ffffff" stroke="#d79a3a"/><text x="434" y="515" text-anchor="middle" fill="#8a5a00">Service Control</text>
    <rect x="488" y="496" width="70" height="30" rx="5" fill="#ffffff" stroke="#d79a3a"/><text x="523" y="515" text-anchor="middle" fill="#8a5a00">Player</text>
    <rect x="564" y="496" width="92" height="30" rx="5" fill="#ffffff" stroke="#d79a3a"/><text x="610" y="515" text-anchor="middle" fill="#8a5a00">Route / Xserv</text>
    <rect x="662" y="496" width="60" height="30" rx="5" fill="#ffffff" stroke="#d79a3a"/><text x="692" y="515" text-anchor="middle" fill="#8a5a00">Table</text>
    <rect x="728" y="496" width="86" height="30" rx="5" fill="#ffffff" stroke="#d79a3a"/><text x="771" y="515" text-anchor="middle" fill="#8a5a00">EPG Control</text>
    <rect x="820" y="496" width="90" height="30" rx="5" fill="#ffffff" stroke="#d79a3a"/><text x="865" y="515" text-anchor="middle" fill="#8a5a00">SList + PIDB</text>
  </g>

  <!-- Comedia CHAL (glue) -->
  <rect x="276" y="538" width="640" height="46" rx="6" fill="#fde9c8" stroke="#d79a3a"/>
  <text x="288" y="555" font-size="11" font-weight="700" fill="#8a5a00">Comedia CHAL  (glue layer)</text>
  <g font-size="10.5">
    <rect x="430" y="546" width="80" height="30" rx="5" fill="#ffffff" stroke="#d79a3a"/><text x="470" y="565" text-anchor="middle" fill="#8a5a00">TDAL_DMD</text>
    <rect x="516" y="546" width="80" height="30" rx="5" fill="#ffffff" stroke="#d79a3a"/><text x="556" y="565" text-anchor="middle" fill="#8a5a00">TDAL_DMX</text>
    <rect x="602" y="546" width="70" height="30" rx="5" fill="#ffffff" stroke="#d79a3a"/><text x="637" y="565" text-anchor="middle" fill="#8a5a00">TDAL_AV</text>
    <rect x="678" y="546" width="80" height="30" rx="5" fill="#ffffff" stroke="#d79a3a"/><text x="718" y="565" text-anchor="middle" fill="#8a5a00">TDAL_DISP</text>
  </g>

  <!-- Media Player -->
  <rect x="962" y="232" width="180" height="180" rx="8" fill="#13314f" stroke="#3d6c99" stroke-width="1.5"/>
  <text x="1052" y="254" text-anchor="middle" class="grouplabel" fill="#cfe2f5">Media Player</text>
  <rect x="976" y="300" width="152" height="40" rx="6" fill="#eaf2fb" stroke="#2f6db0"/>
  <text x="1052" y="325" text-anchor="middle" class="block">Media Player</text>

  <!-- UI Frameworks -->
  <rect x="1156" y="232" width="164" height="372" rx="8" fill="#13314f" stroke="#3d6c99" stroke-width="1.5"/>
  <text x="1238" y="254" text-anchor="middle" class="grouplabel" fill="#cfe2f5">UI Frameworks</text>
  <rect x="1170" y="284" width="136" height="36" rx="6" fill="#eaf2fb" stroke="#2f6db0"/>
  <text x="1238" y="307" text-anchor="middle" class="block">Jetpack Compose</text>
  <rect x="1170" y="328" width="136" height="36" rx="6" fill="#eaf2fb" stroke="#2f6db0"/>
  <text x="1238" y="351" text-anchor="middle" class="block">Kotlin</text>

  <rect x="962" y="424" width="180" height="180" rx="8" fill="#0f2742" stroke="#3d6c99" stroke-width="1.2" stroke-dasharray="5 4"/>
  <text x="1052" y="500" text-anchor="middle" class="note" fill="#7f93a8">(OTT client —</text>
  <text x="1052" y="518" text-anchor="middle" class="note" fill="#7f93a8">out of scope)</text>

  <!-- =====================================================================
       BAND 2 : PLATFORM / PAL / OS
       ===================================================================== -->
  <rect x="64" y="638" width="1272" height="288" rx="12" fill="url(#band)"/>
  <text x="84" y="662" class="bandlabel">Platform / PAL / OS</text>

  <!-- OS / Common libs (left) -->
  <rect x="80" y="678" width="190" height="232" rx="8" fill="#13314f" stroke="#3d6c99" stroke-width="1.5"/>
  <text x="175" y="700" text-anchor="middle" class="grouplabel" fill="#cfe2f5">OS / Common libs</text>
  <rect x="92" y="714" width="166" height="34" rx="6" fill="#eaf2fb" stroke="#2f6db0"/>
  <text x="175" y="736" text-anchor="middle" class="block">Linux Kernel</text>
  <rect x="92" y="754" width="166" height="34" rx="6" fill="#eaf2fb" stroke="#2f6db0"/>
  <text x="175" y="776" text-anchor="middle" class="block">OpenGL / DirectFB</text>
  <rect x="92" y="794" width="166" height="34" rx="6" fill="#eaf2fb" stroke="#2f6db0"/>
  <text x="175" y="816" text-anchor="middle" class="block">SSL / TCP-IP</text>
  <rect x="92" y="834" width="166" height="34" rx="6" fill="#eaf2fb" stroke="#2f6db0"/>
  <text x="175" y="856" text-anchor="middle" class="block">FreeType / WebKit</text>

  <!-- Android Tuner SDK (broadcast platform abstraction) -->
  <rect x="286" y="678" width="430" height="232" rx="8" fill="#13314f" stroke="#5fa0e0" stroke-width="2"/>
  <text x="501" y="700" text-anchor="middle" class="grouplabel" fill="#cfe2f5">Tuner SDK</text>
  <rect x="302" y="712" width="200" height="34" rx="6" fill="#fde9c8" stroke="#d79a3a"/>
  <text x="402" y="734" text-anchor="middle" class="block" fill="#8a5a00">Tuner Java API</text>
  <rect x="302" y="752" width="200" height="34" rx="6" fill="#fde9c8" stroke="#d79a3a"/>
  <text x="402" y="774" text-anchor="middle" class="block" fill="#8a5a00">Tuner Native API</text>
  <rect x="302" y="792" width="95" height="34" rx="6" fill="#fde9c8" stroke="#d79a3a"/>
  <text x="349" y="814" text-anchor="middle" class="block" fill="#8a5a00">TRM</text>
  <rect x="407" y="792" width="95" height="34" rx="6" fill="#fde9c8" stroke="#d79a3a"/>
  <text x="454" y="814" text-anchor="middle" class="block" fill="#8a5a00">Tuner HAL</text>
  <!-- JNI bridge -->
  <rect x="518" y="712" width="86" height="74" rx="6" fill="#eaf2fb" stroke="#2f6db0"/>
  <text x="561" y="754" text-anchor="middle" class="block">JNI</text>
  <!-- MediaCodec / AudioTrack -->
  <rect x="518" y="792" width="86" height="34" rx="6" fill="#eaf2fb" stroke="#2f6db0"/>
  <text x="561" y="814" text-anchor="middle" class="block" font-size="11">MediaCodec</text>
  <rect x="610" y="792" width="92" height="34" rx="6" fill="#eaf2fb" stroke="#2f6db0"/>
  <text x="656" y="814" text-anchor="middle" class="block" font-size="11">AudioTrack</text>
  <rect x="610" y="712" width="92" height="74" rx="6" fill="#eaf2fb" stroke="#2f6db0"/>
  <text x="656" y="745" text-anchor="middle" class="block" font-size="11">Media CAS</text>
  <text x="656" y="762" text-anchor="middle" class="blocksub">(optional)</text>

  <!-- Vendor DTV SDK : Broadcom Nexus over Magnum -->
  <rect x="732" y="678" width="430" height="232" rx="8" fill="#13314f" stroke="#5fa0e0" stroke-width="2"/>
  <text x="947" y="700" text-anchor="middle" class="grouplabel" fill="#cfe2f5">DTV SDK — Broadcom NEXUS</text>
  <g font-size="11">
    <rect x="748" y="712" width="120" height="32" rx="5" fill="#fde9c8" stroke="#d79a3a"/><text x="808" y="732" text-anchor="middle" fill="#8a5a00">InputBand</text>
    <rect x="876" y="712" width="120" height="32" rx="5" fill="#fde9c8" stroke="#d79a3a"/><text x="936" y="732" text-anchor="middle" fill="#8a5a00">ParserBand</text>
    <rect x="1004" y="712" width="142" height="32" rx="5" fill="#fde9c8" stroke="#d79a3a"/><text x="1075" y="732" text-anchor="middle" fill="#8a5a00">PidChannel</text>
    <rect x="748" y="750" width="120" height="32" rx="5" fill="#fde9c8" stroke="#d79a3a"/><text x="808" y="770" text-anchor="middle" fill="#8a5a00">Frontend</text>
    <rect x="876" y="750" width="120" height="32" rx="5" fill="#fde9c8" stroke="#d79a3a"/><text x="936" y="770" text-anchor="middle" fill="#8a5a00">VideoDecoder</text>
    <rect x="1004" y="750" width="142" height="32" rx="5" fill="#fde9c8" stroke="#d79a3a"/><text x="1075" y="770" text-anchor="middle" fill="#8a5a00">AudioDecoder</text>
    <rect x="748" y="788" width="120" height="32" rx="5" fill="#fde9c8" stroke="#d79a3a"/><text x="808" y="808" text-anchor="middle" fill="#8a5a00">StcChannel</text>
    <rect x="876" y="788" width="120" height="32" rx="5" fill="#fde9c8" stroke="#d79a3a"/><text x="936" y="808" text-anchor="middle" fill="#8a5a00">Display</text>
    <rect x="1004" y="788" width="142" height="32" rx="5" fill="#fde9c8" stroke="#d79a3a"/><text x="1075" y="808" text-anchor="middle" fill="#8a5a00">VideoWindow</text>
  </g>
  <rect x="748" y="826" width="398" height="30" rx="5" fill="#0f2742" stroke="#4f86bd"/>
  <text x="947" y="846" text-anchor="middle" class="block" fill="#9bc1e6">Broadcom Magnum  (lower vendor layer)</text>

  <!-- CA SDK (right) -->
  <rect x="1178" y="678" width="142" height="232" rx="8" fill="#13314f" stroke="#3d6c99" stroke-width="1.5"/>
  <text x="1249" y="700" text-anchor="middle" class="grouplabel" fill="#cfe2f5">CA SDK</text>
  <rect x="1190" y="730" width="118" height="40" rx="6" fill="#eef4fa" stroke="#9bb6d4"/>
  <text x="1249" y="755" text-anchor="middle" class="block" fill="#6b7785">CAS SDK</text>
  <text x="1249" y="792" text-anchor="middle" class="blocksub" fill="#7f93a8">proprietary,</text>
  <text x="1249" y="806" text-anchor="middle" class="blocksub" fill="#7f93a8">separate vendor</text>

  <!-- =====================================================================
       BAND 3 : DRIVERS / HAL
       ===================================================================== -->
  <rect x="64" y="942" width="1272" height="138" rx="12" fill="url(#band)"/>
  <text x="84" y="966" class="bandlabel">Drivers / HAL</text>

  <g font-size="12">
    <rect x="84"   y="986" width="118" height="70" rx="8" fill="#eaf2fb" stroke="#2f6db0"/><text x="143"  y="1026" text-anchor="middle" class="block">TUNER</text>
    <rect x="214"  y="986" width="118" height="70" rx="8" fill="#eaf2fb" stroke="#2f6db0"/><text x="273"  y="1026" text-anchor="middle" class="block">DEMUX</text>
    <rect x="344"  y="986" width="118" height="70" rx="8" fill="#eef4fa" stroke="#9bb6d4"/><text x="403"  y="1026" text-anchor="middle" class="block" fill="#6b7785">CAS</text>
    <rect x="474"  y="986" width="118" height="70" rx="8" fill="#eaf2fb" stroke="#2f6db0"/><text x="533"  y="1026" text-anchor="middle" class="block">VDEC</text>
    <rect x="604"  y="986" width="118" height="70" rx="8" fill="#eaf2fb" stroke="#2f6db0"/><text x="663"  y="1026" text-anchor="middle" class="block">ADEC</text>
    <rect x="734"  y="986" width="118" height="70" rx="8" fill="#eaf2fb" stroke="#2f6db0"/><text x="793"  y="1026" text-anchor="middle" class="block">GPU</text>
    <rect x="864"  y="986" width="118" height="70" rx="8" fill="#eaf2fb" stroke="#2f6db0"/><text x="923"  y="1026" text-anchor="middle" class="block">HMI</text>
    <rect x="994"  y="986" width="138" height="70" rx="8" fill="#eef4fa" stroke="#9bb6d4"/><text x="1063" y="1026" text-anchor="middle" class="block" fill="#6b7785">Other ACCEL</text>
    <rect x="1144" y="986" width="118" height="70" rx="8" fill="#eef4fa" stroke="#9bb6d4"/><text x="1203" y="1026" text-anchor="middle" class="block" fill="#6b7785">Other I/O</text>
    <text x="1300" y="1030" text-anchor="middle" class="block" fill="#9bb6d4" font-size="20">…</text>
  </g>

  <!-- =====================================================================
       LEGEND
       ===================================================================== -->
  <g transform="translate(40,1112)">
    <rect x="0" y="0" width="22" height="14" rx="3" fill="#dff0d8" stroke="#5a9f4a"/>
    <text x="30" y="11" class="note" fill="#3a4754">Android TIF / TV Provider</text>
    <rect x="210" y="0" width="22" height="14" rx="3" fill="#fde9c8" stroke="#d79a3a"/>
    <text x="240" y="11" class="note" fill="#3a4754">Comedia MW &amp; vendor PAL (broadcast)</text>
    <rect x="490" y="0" width="22" height="14" rx="3" fill="#eaf2fb" stroke="#2f6db0"/>
    <text x="520" y="11" class="note" fill="#3a4754">Android / platform blocks used by Live TV</text>
    <rect x="800" y="0" width="22" height="14" rx="3" fill="#eef4fa" stroke="#9bb6d4"/>
    <text x="830" y="11" class="note" fill="#3a4754">Present but not in broadcast Live-TV focus</text>
    <line x1="1090" y1="7" x2="1128" y2="7" class="flow"/>
    <text x="1136" y="11" class="note" fill="#3a4754">Broadcast data / control flow (zap to service)</text>
  </g>

  <!-- =====================================================================
       BROADCAST DATA-FLOW PATH  (thin red arrows)
       Call chain follows Module 7 (zapping / scan) + Module 6 (tune, A/V
       playback) + liba4tv (Comedia) API. Each numbered step is annotated
       with the concrete API call so it maps 1:1 onto a UML sequence diagram.
       ===================================================================== -->
  <g>
    <!-- helper: numbered badge -->
    <!-- STEP 1 : Live TV App -> Broadcast TV Input (TIS)  (onTune) -->
    <path class="flow" d="M158,176 L158,300 L262,300"/>
    <circle cx="158" cy="210" r="11" class="stepbadge"/><text x="158" y="214" text-anchor="middle" class="stepnum">1</text>
    <text x="168" y="246" class="calllbl">onTune(channelUri)</text>
    <text x="168" y="258" class="calllbl">onSetSurface / onSetStreamVolume</text>

    <!-- STEP 2 : Broadcast TV Input (TIS) -> Comedia Service (Java)  -->
    <path class="flow" d="M340,376 L340,432 L430,438"/>
    <circle cx="340" cy="404" r="11" class="stepbadge"/><text x="340" y="408" text-anchor="middle" class="stepnum">2</text>
    <text x="348" y="402" class="calllbl">setCurrentServiceByTriplet(ONID,TSID,SID)</text>
    <text x="348" y="414" class="calllbl">ServiceControl.startServiceByTriplet(...)</text>

    <!-- STEP 3 : Comedia Service (Java) -> MAL (native, via JNI) -->
    <path class="flow" d="M580,446 L590,446"/>
    <circle cx="585" cy="424" r="11" class="stepbadge"/><text x="585" y="428" text-anchor="middle" class="stepnum">3</text>
    <text x="470" y="476" class="calllbl">JNI ↓  MAL_SZ_StartTripletService()</text>

    <!-- STEP 4 : MAL -> Comedia MW (Route/Xserv, Service Control, Table) -->
    <path class="flow" d="M665,462 L665,474 L610,496"/>
    <path class="flowback" d="M337,496 L337,470"/>
    <circle cx="665" cy="478" r="11" class="stepbadge"/><text x="665" y="482" text-anchor="middle" class="stepnum">4</text>
    <text x="246" y="463" class="calllbl">getLiveRoute() · Xserv orchestrates · Table parses PAT/PMT</text>

    <!-- STEP 5 : Comedia MW -> Comedia CHAL (TDAL_*) -->
    <path class="flow" d="M470,526 L470,546"/>
    <path class="flow" d="M556,526 L556,546"/>
    <path class="flow" d="M637,526 L637,546"/>
    <circle cx="408" cy="540" r="11" class="stepbadge"/><text x="408" y="544" text-anchor="middle" class="stepnum">5</text>
    <text x="288" y="530" class="calllbl">TDAL_DMD (tune/input) · TDAL_DMX (PID) · TDAL_AV (decoders)</text>

    <!-- STEP 6a : CHAL -> Tuner SDK (Android-aligned path) -->
    <path class="flow" d="M470,576 L470,620 L402,620 L402,712"/>
    <circle cx="402" cy="650" r="11" class="stepbadge"/><text x="402" y="654" text-anchor="middle" class="stepnum">6a</text>
    <text x="412" y="624" class="calllbl">Tuner.tune(frontendSettings) → JNI → TRM.requestFrontend → Tuner HAL: IFrontend.tune / IDemux.openFilter</text>

    <!-- internal Tuner SDK chain: Java API -> Native API -> TRM/HAL -->
    <path class="flow" d="M402,746 L402,752"/>
    <path class="flow" d="M380,786 L360,792"/>
    <path class="flow" d="M420,786 L440,792"/>

    <!-- STEP 6b : CHAL -> Vendor Nexus (frontend/transport/decoders) -->
    <path class="flow" d="M637,576 L637,620 L808,620 L808,712"/>
    <circle cx="808" cy="650" r="11" class="stepbadge"/><text x="808" y="654" text-anchor="middle" class="stepnum">6b</text>
    <text x="700" y="610" class="calllbl">NEXUS_Frontend_Tune · NEXUS_InputBand/ParserBand/PidChannel_SetSettings</text>
    <text x="700" y="600" class="calllbl">NEXUS_VideoDecoder/AudioDecoder_Start · NEXUS_StcChannel_SetSettings</text>

    <!-- internal Nexus graph wiring (object/filter graph) -->
    <path class="flow" d="M868,728 L876,728"/>
    <path class="flow" d="M996,728 L1004,728"/>
    <path class="flow" d="M808,744 L808,750"/>
    <path class="flow" d="M868,766 L876,766"/>
    <path class="flow" d="M936,782 L936,788"/>
    <path class="flow" d="M996,804 L1004,804"/>

    <!-- MediaCodec / AudioTrack consume A/V (Android decode path) -->
    <path class="flow" d="M604,769 L610,769"/>
    <text x="512" y="700" class="calllbl">MediaCodec / AudioTrack</text>
    <text x="512" y="688" class="calllbl">(hw-sync passthrough)</text>

    <!-- STEP 7 : Nexus / Tuner HAL -> Drivers / HAL (register writes) -->
    <path class="flow" d="M808,856 L808,920 L143,920 L143,986"/>
    <path class="flow" d="M273,920 L273,986"/>
    <path class="flow" d="M533,920 L533,986"/>
    <path class="flow" d="M663,920 L663,986"/>
    <path class="flow" d="M793,920 L793,986"/>
    <circle cx="143" cy="952" r="11" class="stepbadge"/><text x="143" y="956" text-anchor="middle" class="stepnum">7</text>
    <text x="300" y="936" class="calllbl">Magnum / driver register writes &amp; IRQs → TUNER · DEMUX · VDEC · ADEC · GPU(Display)</text>

    <!-- RETURN EVENT (asynchronous) : lock / safeToUnblank / serviceStarted -->
    <!-- routed up the narrow gutter between DTV Middleware (ends x946) and Media Player (starts x962), -->
    <!-- then across the free app-row space back to the Live TV App. -->
    <path class="flowback" d="M946,410 L953,410 L953,200 L248,200 L248,176"/>
    <text x="724" y="186" class="calllbl" fill="#a01512">⟵ async events (return path): tunerLocked · channelChangeStatus · safeToUnblank · MAL_SZ_NotifyServiceStarted → "Service started"</text>
  </g>

  <!-- =====================================================================
       FLOW EXPLANATION PANEL  (maps each red step -> UML API call)
       ===================================================================== -->
  <rect x="40" y="1140" width="1320" height="470" rx="12" fill="#ffffff" stroke="#d4231f" stroke-width="1.6"/>
  <text x="60" y="1170" font-size="17" font-weight="700" fill="#a01512">Broadcast data-flow — call chain "Zap to a Live TV service" (maps directly to the UML sequence diagram)</text>
  <text x="60" y="1190" class="note" fill="#5a6b7b">References: Module 7 (Broadcast Zapping / Channel Scanning sequences), Module 6 (Broadcast Tune &amp; A/V Playback sequences), Module 5 (call-stack across layers), liba4tv / Comedia API.</text>

  <g font-size="12.5" fill="#23323f">
    <text x="60"  y="1222" font-weight="700" fill="#d4231f">1</text>
    <text x="80"  y="1222"><tspan font-weight="700">Live TV App → Broadcast TV Input (TIS).</tspan>  User selects a channel. TIF delivers the service-level activation callback <tspan class="calllbl" font-size="11.5">onTune(channelUri)</tspan> (plus <tspan class="calllbl" font-size="11.5">onSetSurface</tspan>, <tspan class="calllbl" font-size="11.5">onSetStreamVolume</tspan>). "Tune" here = "activate this service", not RF tuning.</text>

    <text x="60"  y="1252" font-weight="700" fill="#d4231f">2</text>
    <text x="80"  y="1252"><tspan font-weight="700">Broadcast TV Input → Comedia API (Service, Java).</tspan>  TIS resolves the channel to the service triplet and calls the bound Comedia service: <tspan class="calllbl" font-size="11.5">setCurrentServiceByTriplet(ONID,TSID,SID)</tspan> → <tspan class="calllbl" font-size="11.5">ServiceControl.startServiceByTriplet(routeID,list,svc,onid,tsid,sid)</tspan>.</text>

    <text x="60"  y="1282" font-weight="700" fill="#d4231f">3</text>
    <text x="80"  y="1282"><tspan font-weight="700">Comedia Service (Java) → MAL (native).</tspan>  Crosses the JNI boundary into native middleware. The MAL posts the async zapper request: <tspan class="calllbl" font-size="11.5">MAL_SZ_StartTripletService()</tspan> → main zapper task (returns immediately; result arrives later as an event).</text>

    <text x="60"  y="1312" font-weight="700" fill="#d4231f">4</text>
    <text x="80"  y="1312"><tspan font-weight="700">MAL → Comedia MW core (Route/Xserv, Service Control, Table).</tspan>  Obtains the live route <tspan class="calllbl" font-size="11.5">ComediaRouteManagerControl.getLiveRoute(...)</tspan>; <tspan font-style="italic">Xserv</tspan> orchestrates the signal path; the <tspan font-style="italic">Table</tspan> module parses PAT/PMT to discover A/V + PCR PIDs; services stored in <tspan font-style="italic">SList + PIDB</tspan>.</text>

    <text x="60"  y="1342" font-weight="700" fill="#d4231f">5</text>
    <text x="80"  y="1342"><tspan font-weight="700">Comedia MW → Comedia CHAL (glue / TDAL_*).</tspan>  The platform-independent core calls its glue API: <tspan class="calllbl" font-size="11.5">TDAL_DMD</tspan> (frontend/input), <tspan class="calllbl" font-size="11.5">TDAL_DMX</tspan> (demux / PID filtering), <tspan class="calllbl" font-size="11.5">TDAL_AV</tspan> (decoders). CHAL hides whether the target is Android Tuner SDK or vendor Nexus.</text>

    <text x="60"  y="1378" font-weight="700" fill="#d4231f">6a</text>
    <text x="84"  y="1378"><tspan font-weight="700">CHAL → Tuner SDK (clean Android-aligned PAL path).</tspan>  <tspan class="calllbl" font-size="11.5">Tuner.tune(frontendSettings)</tspan> → JNI → Tuner Native API → <tspan class="calllbl" font-size="11.5">TRM.requestFrontend</tspan> (resource grant) → Tuner HAL <tspan class="calllbl" font-size="11.5">IFrontend.tune</tspan> / <tspan class="calllbl" font-size="11.5">IDemux.openFilter</tspan>. A/V decode via <tspan class="calllbl" font-size="11.5">MediaCodec</tspan> + <tspan class="calllbl" font-size="11.5">AudioTrack</tspan>.</text>

    <text x="60"  y="1408" font-weight="700" fill="#d4231f">6b</text>
    <text x="84"  y="1408"><tspan font-weight="700">CHAL / Tuner HAL → Vendor DTV SDK (Broadcom NEXUS).</tspan>  <tspan class="calllbl" font-size="11.5">NEXUS_Frontend_Tune</tspan> → build the filter graph: <tspan class="calllbl" font-size="11.5">InputBand → ParserBand → PidChannel</tspan>, then <tspan class="calllbl" font-size="11.5">VideoDecoder/AudioDecoder_SetInput+Start</tspan>, <tspan class="calllbl" font-size="11.5">StcChannel</tspan> (PCR lip-sync), <tspan class="calllbl" font-size="11.5">VideoWindow→Display</tspan>.</text>

    <text x="60"  y="1438" font-weight="700" fill="#d4231f">7</text>
    <text x="80"  y="1438"><tspan font-weight="700">NEXUS / Magnum → Drivers / HAL.</tspan>  Vendor layer performs memory-mapped register writes, buffer setup and IRQ handling against the real blocks: <tspan font-style="italic">TUNER, DEMUX, VDEC, ADEC, GPU/Display</tspan>. (In Cuttlefish a TS file feeds the input instead of a real tuner — same abstraction.)</text>

    <text x="60"  y="1474" font-weight="700" fill="#a01512">⟵</text>
    <text x="84"  y="1474"><tspan font-weight="700" fill="#a01512">Asynchronous return path (dashed).</tspan>  Events propagate back up: <tspan class="calllbl" font-size="11.5">tunerLocked</tspan> / lock event → <tspan class="calllbl" font-size="11.5">channelChangeStatus</tspan> + <tspan class="calllbl" font-size="11.5">safeToUnblank</tspan> (ServiceListener) → <tspan class="calllbl" font-size="11.5">MAL_SZ_NotifyServiceStarted</tspan> → Comedia Service → TIS "Service started" → Live TV App. Volume is unmuted; playback active.</text>

    <text x="60"  y="1510" font-style="italic" fill="#5a6b7b" font-size="11.5">Note — the same spine is reused for <tspan font-weight="700">Service installation (scan)</tspan>: steps 1–7 become startScanByUrl → ScanControl.autoScan(routeID,url) → getInstallRoute() → TDAL_*_Tune (file/frontend) → Table parses PAT/PMT/SDT → installStatus/scanProgressChanged/scanFinished events, then services are written into SList+PIDB and published to the Android <tspan font-weight="700">TV Provider</tspan>.</text>
    <text x="60"  y="1532" font-style="italic" fill="#5a6b7b" font-size="11.5">Note — one block-to-block arrow is <tspan font-weight="700">not</tspan> necessarily one API call: a single middleware call (e.g. startServiceByTriplet) expands into many SDK + driver calls underneath (Module 5: "call stack across the layers").</text>
  </g>
</svg>
